<?xml version="1.0" encoding="UTF-8"?>
<svg width="186px" height="213px" viewBox="0 0 186 213" version="1.1" xmlns="http://www.w3.org/2000/svg" xmlns:xlink="http://www.w3.org/1999/xlink">
    <!-- Generator: Sketch 63 (92445) - https://sketch.com -->
    <title>Soper Fox Logo Thicker</title>
    <desc>Created with Sketch.</desc>
    <g id="Page-1" stroke="none" stroke-width="1" fill="none" fill-rule="evenodd">
        <g id="Logo" transform="translate(-219.000000, -2.000000)" stroke="#6E6E6E" stroke-width="3">
            <g id="Soper-Fox-Logo-Thicker" transform="translate(222.000000, 6.000000)">
                <polygon id="Stroke-1" points="0.0976436815 1.42108547e-14 21.5233028 92.8405745 0.0976436815 113.726586 58.7932065 163.316387 53.7542814 173.412867 90.9565963 206.966245 127.863655 173.412867 122.527694 163.316387 180.333931 113.726586 159.386729 92.8405745 180.333931 1.42108547e-14 115.413081 48.994738 66.5001118 48.994738"></polygon>
                <line x1="66.8795157" y1="48.8776371" x2="63.4648527" y2="83.0849302" id="Stroke-3"></line>
                <line x1="115.418319" y1="48.8776371" x2="118.442241" y2="83.0849302" id="Stroke-4"></line>
                <line x1="21.4816099" y1="92.4092827" x2="66.5406817" y2="48.8776371" id="Path"></line>
                <line x1="159.713677" y1="92.4092827" x2="115.418319" y2="48.8776371" id="Path"></line>
                <polyline id="Stroke-7" points="42.1018631 148.970211 64.8381201 79.4261603 91.8142846 155.033755 118.447159 79.6857725 140.62085 148.283839"></polyline>
                <line x1="58.9035509" y1="163.434599" x2="79.523804" y2="122.957806" id="Stroke-8"></line>
                <line x1="102.435196" y1="122.957806" x2="123.05545" y2="163.434599" id="Stroke-9"></line>
            </g>
        </g>
    </g>
</svg>