<?xml version="1.0" encoding="UTF-8"?>
<svg width="200px" height="43px" viewBox="0 0 200 43" version="1.1" xmlns="http://www.w3.org/2000/svg" xmlns:xlink="http://www.w3.org/1999/xlink">
    <!-- Generator: Sketch 63 (92445) - https://sketch.com -->
    <title>Group</title>
    <desc>Created with Sketch.</desc>
    <g id="Page-1" stroke="none" stroke-width="1" fill="none" fill-rule="evenodd">
        <g id="Logo" transform="translate(-3.000000, -96.000000)" fill="#6E6E6E">
            <g id="Group" transform="translate(3.000000, 96.000000)">
                <polygon id="Fill-1" points="36.7410042 0 22.5013562 32.9770243 8.26170816 0 0 41.4490149 4.72756314 41.4490149 9.84569948 14.3519239 22.5013562 43 35.0973419 14.3519239 40.2697245 41.4490149 45 41.4490149"></polygon>
                <polygon id="Fill-2" points="87 1 87 5.53503864 98.1558303 5.53503864 98.1558303 41 102.899358 41 102.899358 5.53503864 114 5.53503864 114 1"></polygon>
                <path d="M155,10.5139814 C153.103038,8.43941411 151.081902,6.90545939 148.931308,5.91211718 C146.783355,4.92143808 144.405548,4.42343542 141.805812,4.42343542 C139.7107,4.42343542 137.663144,4.85219707 135.67107,5.70705726 C133.673712,6.56458056 131.943197,7.75499334 130.482166,9.28628495 C128.965654,10.8681758 127.826948,12.6391478 127.068692,14.5965379 C126.310436,16.5539281 125.929987,18.7163782 125.929987,21.081225 C125.929987,22.9400799 126.157199,24.6498003 126.608983,26.2157124 C127.060766,27.7816245 127.73712,29.2197071 128.638045,30.5299601 C130.228534,32.8069241 132.18362,34.5565912 134.505945,35.7869507 C136.825627,37.0146471 139.330251,37.6298269 142.022457,37.6298269 C144.550859,37.6298269 146.899604,37.10253 149.06605,36.045273 C151.232497,34.9906791 153.211361,33.4167776 155,31.3209055 L155,37.6298269 C153.031704,39.0679095 150.912814,40.1571238 148.648613,40.8921438 C146.379128,41.63249 144.038309,42 141.61823,42 C139.523118,42 137.480845,41.6857523 135.494055,41.057257 C133.507266,40.4287617 131.647292,39.5153129 129.914135,38.3115846 C127.023778,36.2929427 124.815059,33.8082557 123.290621,30.8575233 C121.76354,27.9094541 121,24.6684421 121,21.1371505 C121,18.0585885 121.509908,15.2623169 122.532365,12.7403462 C123.55218,10.2183755 125.110964,7.92809587 127.203435,5.87217044 C129.227213,3.90679095 131.467635,2.436751 133.922061,1.4620506 C136.379128,0.4873502 139.060766,0 141.966975,0 C144.26288,0 146.482166,0.351531292 148.632761,1.05193076 C150.780713,1.75233023 152.904888,2.84154461 155,4.31424767 L155,10.5139814 Z" id="Fill-3"></path>
                <polygon id="Fill-5" points="169 41 169 1 173.777471 1 173.777471 16.3823608 195.142191 16.3823608 195.142191 1 200 1 200 41 195.142191 41 195.142191 20.9173994 173.777471 20.9173994 173.777471 41"></polygon>
                <polygon id="Fill-7" points="71.0631769 0 77 0 59.8953069 42 54 42"></polygon>
            </g>
        </g>
    </g>
</svg>