<?xml version="1.0" encoding="UTF-8"?>
<svg width="201px" height="44px" viewBox="0 0 201 44" version="1.1" xmlns="http://www.w3.org/2000/svg" xmlns:xlink="http://www.w3.org/1999/xlink">
    <!-- Generator: Sketch 63 (92445) - https://sketch.com -->
    <title>Group 2</title>
    <desc>Created with Sketch.</desc>
    <defs>
        <polygon id="path-1" points="0.79137 2.53893333 24.72417 2.53893333 24.72417 45.3333333 0.79137 45.3333333"></polygon>
    </defs>
    <g id="Page-1" stroke="none" stroke-width="1" fill="none" fill-rule="evenodd">
        <g id="Logo" transform="translate(-424.000000, -97.000000)">
            <g id="Group-2" transform="translate(424.000000, 95.000000)">
                <path d="M17.1479472,21.7573333 C19.7484578,22.8693333 21.7081472,24.3466667 23.0243565,26.1866667 C24.3432248,28.0293333 25,30.2053333 25,32.7226667 C25,36.4053333 23.8353542,39.3706667 21.4980855,41.624 C19.1634759,43.8746667 16.0683897,45 12.2154861,45 C9.06987875,45 6.43480111,44.1946667 4.30759413,42.5786667 C2.18038715,40.968 0.744522442,38.6746667 0,35.7013333 L4.30759413,33.5706667 C4.88991704,35.9946667 5.84716018,37.832 7.18464157,39.08 C8.51946394,40.328 10.1972984,40.952 12.2154861,40.952 C14.5952989,40.952 16.5230802,40.264 17.993512,38.888 C19.4666029,37.512 20.2004893,35.72 20.2004893,33.5146667 C20.2004893,31.728 19.6899596,30.176 18.6609232,28.8533333 C17.6372049,27.5333333 16.0870028,26.416 14.012976,25.504 L9.16028505,23.424 C6.50659434,22.312 4.53095086,20.8826667 3.2306956,19.1333333 C1.93044033,17.3813333 1.2816422,15.2853333 1.2816422,12.8426667 C1.2816422,10 2.33460966,7.648 4.44586258,5.78933333 C6.55179749,3.928 9.24271432,3 12.5159541,3 C14.9143799,3 16.9884067,3.50933333 18.7460115,4.53066667 C20.4982982,5.552 21.8650287,7.056 22.8488619,9.04266667 L18.9215061,11.5573333 C18.0307381,10.008 17.0309509,8.856 15.9221442,8.09866667 C14.8133376,7.344 13.5582855,6.96533333 12.1596469,6.96533333 C10.378111,6.96533333 8.91831525,7.512 7.78557754,8.60533333 C6.6475218,9.69866667 6.08115295,11.0933333 6.08115295,12.7893333 C6.08115295,14.2106667 6.51723038,15.44 7.38938524,16.48 C8.2615401,17.52 9.61497554,18.44 11.4496916,19.2426667 L17.1479472,21.7573333 Z" id="Fill-1" fill="#6E6E6E"></path>
                <path d="M60.0013087,40.5146667 C62.1475042,40.5146667 64.1968592,40.1013333 66.1389045,39.272 C68.0809497,38.4426667 69.8319312,37.2346667 71.3918489,35.648 C72.9282109,34.08 74.1033838,32.3013333 74.9068985,30.3146667 C75.7130305,28.328 76.1160965,26.224 76.1160965,24 C76.1160965,21.7573333 75.7104132,19.624 74.8938119,17.6 C74.079828,15.576 72.912507,13.792 71.3918489,12.24 C69.8502524,10.6746667 68.1097401,9.48 66.1624603,8.65866667 C64.220415,7.84 62.1658254,7.42933333 60.0013087,7.42933333 C57.8158534,7.42933333 55.7481772,7.84 53.7956627,8.65866667 C51.8457656,9.48 50.1157226,10.6746667 48.6107684,12.24 C47.0744064,13.8266667 45.8992335,15.624 45.0931015,17.6266667 C44.2869695,19.632 43.8865208,21.7573333 43.8865208,24 C43.8865208,26.224 44.2817349,28.32 45.080015,30.288 C45.878295,32.256 47.0534679,34.0426667 48.6107684,35.648 C50.1890073,37.2506667 51.9373715,38.464 53.8637128,39.2853333 C55.7900542,40.104 57.8341746,40.5146667 60.0013087,40.5146667 M81,24 C81,26.8613333 80.4817723,29.56 79.4453169,32.0933333 C78.4036268,34.6266667 76.8908207,36.8773333 74.9042812,38.848 C72.9177416,40.816 70.6328286,42.3333333 68.04169,43.4 C65.4557861,44.4666667 62.775659,45 60.0013087,45 C57.224341,45 54.5546831,44.4666667 51.9844831,43.4 C49.414283,42.3333333 47.1372219,40.816 45.1480651,38.848 C43.1458216,36.8586667 41.619929,34.6 40.570387,32.0666667 C39.5234623,29.5306667 39,26.8426667 39,24 C39,21.136 39.5234623,18.4346667 40.570387,15.8906667 C41.619929,13.3493333 43.1458216,11.0826667 45.1480651,9.096 C47.1189007,7.14666667 49.3933446,5.64266667 51.9713965,4.584 C54.5494485,3.528 57.224341,3 60.0013087,3 C62.7913629,3 65.4845766,3.528 68.0704805,4.584 C70.6563844,5.64266667 72.9334455,7.14666667 74.9042812,9.096 C76.8908207,11.0666667 78.4036268,13.32 79.4453169,15.864 C80.4817723,18.4053333 81,21.12 81,24" id="Fill-3" fill="#6E6E6E"></path>
                <path d="M102.739213,21.7324807 L105.191748,21.7324807 C109.357253,21.7324807 112.15782,21.2555289 113.598889,20.2962963 C115.037238,19.3423928 115.757773,17.6717293 115.757773,15.2843059 C115.757773,12.7343459 115.020924,10.9411138 113.544509,9.90194511 C112.065374,8.86277645 109.281121,8.34585665 105.191748,8.34585665 L102.739213,8.34585665 L102.739213,21.7324807 Z M102.739213,26.0490274 L102.739213,44 L98,44 L98,4 L106.559404,4 C109.550301,4 111.752689,4.15454303 113.166568,4.46629363 C114.577728,4.7753797 115.806715,5.28430589 116.845372,5.99573674 C118.147772,6.90700773 119.164677,8.15401013 119.901525,9.73940847 C120.632935,11.3221423 121,13.0807354 121,15.0125233 C121,16.9416467 120.632935,18.7002398 119.901525,20.2856382 C119.164677,21.868372 118.147772,23.1180389 116.845372,24.0266454 C115.806715,24.756728 114.583166,25.2763123 113.180163,25.5853983 C111.77716,25.8944844 109.572053,26.0490274 106.559404,26.0490274 L105.191748,26.0490274 L102.739213,26.0490274 Z" id="Fill-5" fill="#6E6E6E"></path>
                <polygon id="Fill-7" fill="#6E6E6E" points="136 44 136 4 157 4 157 8.34585665 140.732693 8.34585665 140.732693 19.8193445 157 19.8193445 157 24.2451372 140.732693 24.2451372 140.732693 39.5742073 157 39.5742073 157 44"></polygon>
                <path d="M179.652294,8.0157218 L179.652294,21.4032376 L183.292988,21.4032376 C187.016425,21.4032376 189.504055,20.9262541 190.763885,19.9696223 C192.023714,19.0129905 192.65096,17.3422157 192.65096,14.9546333 C192.65096,12.3885151 192.00503,10.5898341 190.710502,9.56125508 C189.413305,8.53001133 186.939021,8.0157218 183.292988,8.0157218 L179.652294,8.0157218 Z M175,44 L175,4 L184.414023,4 C187.096499,4 189.060979,4.1492239 190.312802,4.45033642 C191.561955,4.75144894 192.661636,5.26573846 193.609178,5.99320498 C194.796941,6.92318966 195.717791,8.16494571 196.374397,9.72380254 C197.031003,11.2799947 197.359306,13.0067284 197.359306,14.901339 C197.359306,18.1789354 196.443794,20.6731064 194.610102,22.373193 C192.776409,24.078609 190.088595,24.9286523 186.549328,24.9286523 L185.703213,24.9286523 L201,44 L194.949081,44 L180.338261,24.9286523 L179.652294,24.9286523 L179.652294,44 L175,44 Z" id="Fill-9" fill="#6E6E6E"></path>
                <g id="Group-13" transform="translate(48.000000, 0.000000)">
                    <mask id="mask-2" fill="white">
                        <use xlink:href="#path-1"></use>
                    </mask>
                    <g id="Clip-12"></g>
                    <polygon id="Fill-11" fill="#6E6E6E" mask="url(#mask-2)" points="18.54657 2.53893333 24.72417 2.53893333 6.92577 45.3336 0.79137 45.3336"></polygon>
                </g>
            </g>
        </g>
    </g>
</svg>